<svg width="60" height="56" viewBox="0 0 60 56" fill="none" xmlns="http://www.w3.org/2000/svg">
<path d="M21.4286 17.1429H33.2893V23.2221H33.4586C35.1086 20.2629 39.1479 17.1429 45.1672 17.1429C57.6857 17.1429 60 24.9364 60 35.0721V55.7143H47.6379V37.4143C47.6379 33.0493 47.5479 27.435 41.2072 27.435C34.7679 27.435 33.7864 32.1879 33.7864 37.0971V55.7143H21.4286V17.1429Z" fill="white"/>
<path d="M0 17.1429H12.8571V55.7143H0V17.1429Z" fill="white"/>
<path d="M12.8571 6.42857C12.8571 9.97929 9.97929 12.8571 6.42857 12.8571C2.87786 12.8571 0 9.97929 0 6.42857C0 2.87786 2.87786 0 6.42857 0C9.97929 0 12.8571 2.87786 12.8571 6.42857Z" fill="white"/>
</svg>
