<?xml version="1.0" encoding="UTF-8"?>
<svg width="113px" height="25px" viewBox="0 0 113 25" version="1.1" xmlns="http://www.w3.org/2000/svg" xmlns:xlink="http://www.w3.org/1999/xlink">
    <!-- Generator: Sketch 49.2 (51160) - http://www.bohemiancoding.com/sketch -->
    <title>aurer-logo</title>
    <desc>Created with Sketch.</desc>
    <defs></defs>
    <g id="Page-1" stroke="none" stroke-width="1" fill="none" fill-rule="evenodd">
        <g id="Work" transform="translate(-16.000000, -20.000000)" fill="#FFFFFF">
            <g id="Logo-dark" transform="translate(13.000000, 15.000000)">
                <path d="M18.9262266,22.3802474 C17.8408615,23.8419451 16.3623554,24.5717278 14.492822,24.5717278 C12.6217033,24.5717278 11.1812431,23.9709498 10.1719699,22.7693938 C9.16058292,21.5673047 8.65541787,19.8555939 8.65541787,17.6337281 C8.65541787,15.0770899 9.19862882,13.0689881 10.2845223,11.6078236 C11.3704158,10.1471921 12.8779847,9.41634323 14.8088143,9.41634323 C16.6487565,9.41634323 18.0670232,10.0181874 19.0630861,11.2208095 C20.0575638,12.4234317 20.555331,14.1639287 20.555331,16.4465652 C20.555331,18.9424326 20.0126485,20.9206821 18.9262266,22.3802474 Z M22.1458611,5.75996678 C21.8742557,5.75996678 21.394983,5.80634449 21.3553518,6.42098249 C21.3157207,7.03508742 21.1434573,9.0501192 21.1434573,9.0501192 C20.4491195,7.7718001 19.4763069,6.7621519 18.2255478,6.06115539 C16.9726751,5.36282427 15.5026237,5.00086486 13.8138083,5.00086486 C11.6716125,5.00086486 9.78622666,5.53554128 8.15817904,6.61555567 C6.52960301,7.69610313 5.26193464,9.20844313 4.35675919,11.155241 C3.45158374,13.1031051 2.99978863,15.3377647 2.99978863,17.8629513 C2.99978863,20.1152025 3.40666843,22.0843896 4.22148487,23.7731781 C5.03524447,25.4619667 6.17345108,26.7562781 7.63768995,27.6529139 C9.10034357,28.551149 10.7965568,29 12.7273864,29 C14.2048356,29 15.5702608,28.6876168 16.8226051,28.0639165 C18.074421,27.4402161 19.0916205,26.5894249 19.8773741,25.4635659 L19.6047118,28.682286 L24.3371995,28.682286 C24.5369405,28.682286 25.1683968,28.654566 25.2471307,27.7744555 C25.3253361,26.8948782 26.9798045,5.75996678 26.9798045,5.75996678 L22.1458611,5.75996678 Z" id="Fill-1"></path>
                <path d="M54,5.5 C54,5.5 52.2645144,27.3211619 52.1902072,28.1854853 C52.1159001,29.0498088 51.4796104,29.1257512 51.2401761,29.1257512 L46.4129613,29.1257512 L46.6953286,25.7569659 C45.8773991,26.9425423 44.8018714,27.862047 43.4665438,28.5171189 C42.1312162,29.1727372 40.6450725,29.5 39.0125162,29.5 C36.4040588,29.5 34.4170296,28.7902932 33.0503279,27.371426 C31.6836261,25.9520124 31,23.8862684 31,21.1725551 C31,20.5491714 31.0159623,20.0661992 31.046786,19.722546 C31.046786,19.722546 32.044704,6.98552176 32.1135069,6.31624476 C32.1828603,5.64806046 32.7696118,5.5 33.0486766,5.5 L38.0696405,5.5 L36.9385201,19.3477509 L36.8911837,20.23666 C36.8911837,23.3246221 38.3211841,24.8680568 41.1806347,24.8680568 C42.8770402,24.8680568 44.2354856,24.3151521 45.2576222,23.2077035 C46.2786579,22.1008013 46.8676112,20.5803132 47.0244819,18.645693 C47.0244819,18.645693 48.0124922,6.97896558 48.0482698,6.23975596 C48.082396,5.5 48.8518882,5.5 48.8518882,5.5 L54,5.5 Z" id="Fill-4"></path>
                <path d="M58.9091845,6.49518862 C58.9775454,5.64513214 59.5315425,5.55730743 59.8569406,5.55730743 L64.4327489,5.55730743 L64.0707093,9.13155636 C64.7576001,7.83153377 65.779733,6.81829681 67.1387486,6.09076124 C68.4972173,5.36430992 69.9874859,5 71.6111951,5 C72.5474666,5 73.3437349,5.12414728 74,5.37189971 L73.5313174,10.6164445 C72.6568441,10.2456291 71.640727,10.0602214 70.4873412,10.0602214 C68.4572945,10.0602214 66.8817114,10.6245765 65.7573106,11.7543709 C64.6340035,12.8841653 64.0083642,14.409171 63.8842207,16.3266772 C63.8842207,16.3266772 63.0004504,27.4213237 62.9315425,28.0355546 C62.8631816,28.6508697 62.4453595,29 61.9821457,29 L57,29 L58.3579218,12.1951208" id="Fill-6"></path>
                <path d="M87.1161669,9.29021717 C88.6696891,9.29021717 89.8971567,9.87233746 90.799114,10.8009579 C91.6999827,11.7290453 92.1343593,13.2232607 92.1033324,14.8224923 L81.0104,14.8224923 C81.7561342,11.0909519 83.7908455,9.29021717 87.1161669,9.29021717 Z M96.8580684,17.4878782 C96.9516934,16.4217238 96.9974173,15.9105028 96.9974173,15.2100394 C96.9974173,11.9843893 96.0889279,9.46026879 94.2714049,7.67979097 C92.4538819,5.90091239 89.9755404,5.00001193 86.8369248,5.00001193 C84.5681509,5.00001193 82.5416046,5.53628759 80.7540198,6.6157689 C78.9669794,7.69578329 77.569136,9.19852789 76.559401,11.1319989 C75.5491217,13.0644037 75.043982,15.262814 75.043982,17.7272299 C75.043982,19.979481 75.5257154,21.9550651 76.4897266,23.6582467 C77.4521047,25.3635606 78.8352512,26.678129 80.6380772,27.6067495 C82.4392703,28.535903 84.537124,28.9991471 86.9300055,28.9991471 C88.6386622,28.9991471 90.301595,28.7406046 91.9177154,28.2245859 C93.532747,27.706968 94.8391427,26.9915784 95.8325478,26.077351 L94.5272408,22.1992144 C92.3831188,23.8117729 89.9602991,24.6177856 87.2566044,24.6177856 C85.1119381,24.6177856 83.430498,24.0244707 82.3118967,22.8373078 C81.1922067,21.650678 80.5830997,19.9315041 80.5830997,17.6792529 L80.5830997,17.4878782 L96.8580684,17.4878782 Z" id="Fill-8"></path>
                <path d="M100.939695,6.51398854 C101.008327,5.66682059 101.560108,5.57929431 101.884204,5.57929431 L106.441704,5.57929431 L106.081657,9.14139782 C106.765255,7.84579275 107.783298,6.83599881 109.136876,6.11093542 C110.489909,5.38695261 111.974215,5.02388063 113.591427,5.02388063 C114.523408,5.02388063 115.317035,5.14760605 115.97013,5.39451661 L115.503867,10.6212403 C114.632893,10.2516849 113.620841,10.0669072 112.47207,10.0669072 C110.450146,10.0669072 108.880323,10.6293446 107.760965,11.7552999 C106.641608,12.8812553 106.019017,14.4010789 105.89537,16.3120694 C105.89537,16.3120694 105.015136,27.3690159 104.947049,27.9811596 C104.878416,28.5943838 104.462266,28.9423278 104.000361,28.9423278 L99.0386945,28.9423278 L100.391728,12.1945522 L100.939695,6.51398854 Z" id="Fill-11"></path>
            </g>
        </g>
    </g>
</svg>