<?xml version="1.0" encoding="UTF-8"?>
<svg width="123px" height="27px" viewBox="0 0 123 27" version="1.1" xmlns="http://www.w3.org/2000/svg" xmlns:xlink="http://www.w3.org/1999/xlink">
    <!-- Generator: Sketch 49.3 (51167) - http://www.bohemiancoding.com/sketch -->
    <title>aurer-logo</title>
    <desc>Created with Sketch.</desc>
    <defs></defs>
    <g id="Page-1" stroke="none" stroke-width="1" fill="none" fill-rule="evenodd">
        <g id="Work" transform="translate(-27.000000, -29.000000)" fill="#FFFFFF">
            <g id="Logo/light" transform="translate(24.000000, 24.000000)">
                <path d="M20.2478472,23.8225093 C19.0724155,25.4055027 17.4712188,26.1958448 15.4465462,26.1958448 C13.4201569,26.1958448 11.8601632,25.5452126 10.7671376,24.2439481 C9.67182297,22.9421063 9.1247379,21.0883529 9.1247379,18.6821105 C9.1247379,15.9133152 9.71302603,13.7385755 10.88903,12.1561594 C12.065034,10.5743205 13.6977053,9.78282382 15.7887605,9.78282382 C17.7813863,9.78282382 19.3173448,10.4346107 20.3960638,11.7370298 C21.473066,13.0394489 22.0121393,14.9243773 22.0121393,17.3964334 C22.0121393,20.0994149 21.4244235,22.2418251 20.2478472,23.8225093 Z M23.7346561,5.82303096 C23.4405121,5.82303096 22.921468,5.87325723 22.8785481,6.53889962 C22.8356283,7.2039647 22.64907,9.38620949 22.64907,9.38620949 C21.8971141,8.00181187 20.8435748,6.90838022 19.4890242,6.14921305 C18.1321845,5.39293245 16.5401441,5.00093662 14.7111861,5.00093662 C12.3912249,5.00093662 10.3493844,5.579982 8.5862368,6.74961903 C6.82251694,7.91983336 5.44965389,9.55767158 4.46936443,11.6660203 C3.48907497,13.7755236 2.99978863,16.1956215 2.99978863,18.9303552 C2.99978863,21.3695045 3.44043247,23.5021003 4.32286466,25.3310293 C5.20415232,27.1599583 6.43681052,28.5616753 8.02255606,29.5327165 C9.60658479,30.5054897 11.4435545,30.9915876 13.5346098,30.9915876 C15.134662,30.9915876 16.613394,30.6532819 17.9696614,29.9778252 C19.3253565,29.3023684 20.4269661,28.3809762 21.2779237,27.1616902 L20.9826351,30.6475088 L26.1078379,30.6475088 C26.324154,30.6475088 27.0080103,30.6174885 27.0932778,29.664344 C27.1779729,28.7117768 28.9697338,5.82303096 28.9697338,5.82303096 L23.7346561,5.82303096 Z" id="Fill-1"></path>
                <path d="M58.2321411,5.54149141 C58.2321411,5.54149141 56.3526401,29.1734348 56.2721667,30.1094822 C56.1916933,31.0455296 55.5026025,31.127774 55.2432993,31.127774 L50.0155086,31.127774 L50.3213075,27.4794374 C49.435504,28.7633963 48.270726,29.759204 46.8245891,30.4686357 C45.3784522,31.178659 43.7689841,31.533079 42.0009537,31.533079 C39.1760392,31.533079 37.0241207,30.7644787 35.5440062,29.2278699 C34.0638917,27.6906694 33.3235364,25.4535042 33.3235364,22.5145992 C33.3235364,21.8394854 33.3408232,21.3164349 33.3742048,20.9442643 C33.3742048,20.9442643 34.4549328,7.15028595 34.5294452,6.42547046 C34.6045537,5.70183834 35.2399956,5.54149141 35.5422179,5.54149141 L40.9798356,5.54149141 L39.7548516,20.5383676 L39.703587,21.5010409 C39.703587,24.8452508 41.252253,26.5167641 44.3489888,26.5167641 C46.1861668,26.5167641 47.6573398,25.9179778 48.7642962,24.71863 C49.8700603,23.5198739 50.5078866,21.8732115 50.6777749,19.778051 C50.6777749,19.778051 51.7477731,7.14318572 51.7865195,6.3426344 C51.8234777,5.54149141 52.6568245,5.54149141 52.6568245,5.54149141 L58.2321411,5.54149141 Z" id="Fill-4"></path>
                <path d="M63.5487036,6.61926358 C63.6227373,5.69866703 64.2227066,5.60355437 64.5751072,5.60355437 L69.5306289,5.60355437 L69.1385463,9.47440454 C69.8824372,8.06650241 70.9893895,6.9691842 72.4611801,6.18127568 C73.9323783,5.39454138 75.5463136,5 77.3047628,5 C78.3187287,5 79.1810736,5.13444937 79.8917974,5.40276099 L79.3842222,11.0825129 C78.4371827,10.6809262 77.3367453,10.4801328 76.0876483,10.4801328 C73.8891426,10.4801328 72.1828132,11.0913197 70.9651065,12.3148676 C69.7485842,13.5384156 69.0710275,15.1899705 68.9365823,17.2665968 C68.9365823,17.2665968 67.9794742,29.2819083 67.9048482,29.9471097 C67.8308145,30.6134854 67.3783203,30.9915876 66.8766678,30.9915876 L61.4810896,30.9915876 L62.9516956,12.7921922" id="Fill-6"></path>
                <path d="M94.0963807,9.64623147 C95.7788186,9.64623147 97.1081449,10.2766577 98.0849492,11.2823377 C99.0605746,12.2874404 99.5309969,13.90565 99.4973953,15.6375903 L87.4839401,15.6375903 C88.2915575,11.5963963 90.4951148,9.64623147 94.0963807,9.64623147 Z M104.646693,18.5241575 C104.748087,17.3695306 104.797605,16.815887 104.797605,16.0572972 C104.797605,12.5639736 103.813727,9.83039445 101.845381,7.90216757 C99.8770344,5.97567263 97.1930332,5.00001292 93.7939664,5.00001292 C91.3369233,5.00001292 89.1422084,5.58079024 87.2062848,6.74984995 C85.2709507,7.91948698 83.7571104,9.54693355 82.6635847,11.6408494 C81.5694696,13.7336106 81.022412,16.1144512 81.022412,18.7833712 C81.022412,21.2225205 81.544121,23.3620441 82.5881285,25.2065605 C83.6303675,27.0533862 85.1282913,28.4770412 87.080721,29.4827212 C89.0313821,30.4889785 91.3033217,30.9906639 93.8947711,30.9906639 C95.745217,30.9906639 97.5461447,30.7106668 99.2963752,30.1518274 C101.045427,29.5912561 102.460231,28.8165015 103.536071,27.8264089 L102.122446,23.6264537 C99.8003992,25.3728268 97.1765271,26.2457247 94.2484722,26.2457247 C91.9258355,26.2457247 90.1048647,25.6031749 88.8934387,24.3174978 C87.6808337,23.0323981 87.0211813,21.1705623 87.0211813,18.731413 L87.0211813,18.5241575 L104.646693,18.5241575 Z" id="Fill-8"></path>
                <path d="M109.067024,6.63962357 C109.141352,5.72215524 109.738921,5.62736578 110.089911,5.62736578 L115.025605,5.62736578 L114.635681,9.48506267 C115.376006,8.08194464 116.478529,6.98835516 117.94443,6.20312397 C119.409742,5.41906302 121.01722,5.02586231 122.768633,5.02586231 C123.777952,5.02586231 124.637436,5.15985481 125.344727,5.4272547 L124.839772,11.0877066 C123.896522,10.6874845 122.800488,10.4873734 121.556388,10.4873734 C119.366679,10.4873734 117.666587,11.0964834 116.454343,12.3158738 C115.242098,13.5352641 114.567842,15.1812069 114.433935,17.2507768 C114.433935,17.2507768 113.480657,29.2252598 113.406919,29.8882009 C113.332592,30.5523122 112.881908,30.9291296 112.381673,30.9291296 L107.008273,30.9291296 L108.473585,12.7915764 L109.067024,6.63962357 Z" id="Fill-11"></path>
            </g>
        </g>
    </g>
</svg>