<?xml version="1.0" encoding="UTF-8"?>
<svg width="105px" height="25px" viewBox="0 0 105 25" version="1.1" xmlns="http://www.w3.org/2000/svg" xmlns:xlink="http://www.w3.org/1999/xlink">
    <!-- Generator: Sketch 49.2 (51160) - http://www.bohemiancoding.com/sketch -->
    <title>aurer-logo</title>
    <desc>Created with Sketch.</desc>
    <defs>
        <polygon id="path-1" points="0 0.00086485672 23.9798045 0.00086485672 23.9798045 24 0 24"></polygon>
        <polygon id="path-3" points="0.0439819883 0.000331779529 21.9974173 0.000331779529 21.9974173 23.9991471 0.0439819883 23.9991471"></polygon>
        <polygon id="path-5" points="0.0386945016 0.0238806272 16.9700752 0.0238806272 16.9700752 23.9423278 0.0386945016 23.9423278"></polygon>
    </defs>
    <g id="Page-1" stroke="none" stroke-width="1" fill="none" fill-rule="evenodd">
        <g id="Home" transform="translate(-20.000000, -20.000000)">
            <g id="Logo-dark" transform="translate(12.000000, 15.000000)">
                <g id="Page-1-Copy" transform="translate(8.000000, 5.000000)">
                    <g id="Group-3">
                        <mask id="mask-2" fill="white">
                            <use xlink:href="#path-1"></use>
                        </mask>
                        <g id="Clip-2"></g>
                        <path d="M15.9262266,17.3802474 C14.8408615,18.8419451 13.3623554,19.5717278 11.492822,19.5717278 C9.6217033,19.5717278 8.18124312,18.9709498 7.17196985,17.7693938 C6.16058292,16.5673047 5.65541787,14.8555939 5.65541787,12.6337281 C5.65541787,10.0770899 6.19862882,8.06898814 7.28452231,6.60782356 C8.37041581,5.14719206 9.87798473,4.41634323 11.8088143,4.41634323 C13.6487565,4.41634323 15.0670232,5.01818738 16.0630861,6.22080952 C17.0575638,7.42343167 17.555331,9.16392869 17.555331,11.4465652 C17.555331,13.9424326 17.0126485,15.9206821 15.9262266,17.3802474 Z M19.1458611,0.759966777 C18.8742557,0.759966777 18.394983,0.806344492 18.3553518,1.42098249 C18.3157207,2.03508742 18.1434573,4.0501192 18.1434573,4.0501192 C17.4491195,2.7718001 16.4763069,1.7621519 15.2255478,1.06115539 C13.9726751,0.362824269 12.5026237,0.00086485672 10.8138083,0.00086485672 C8.67161254,0.00086485672 6.78622666,0.535541279 5.15817904,1.61555567 C3.52960301,2.69610313 2.26193464,4.20844313 1.35675919,6.15524103 C0.451583737,8.10310508 -0.00021136613,10.3377647 -0.00021136613,12.8629513 C-0.00021136613,15.1152025 0.406668435,17.0843896 1.22148487,18.7731781 C2.03524447,20.4619667 3.17345108,21.7562781 4.63768995,22.6529139 C6.10034357,23.551149 7.79655677,24 9.72738637,24 C11.2048356,24 12.5702608,23.6876168 13.8226051,23.0639165 C15.074421,22.4402161 16.0916205,21.5894249 16.8773741,20.4635659 L16.6047118,23.682286 L21.3371995,23.682286 C21.5369405,23.682286 22.1683968,23.654566 22.2471307,22.7744555 C22.3253361,21.8948782 23.9798045,0.759966777 23.9798045,0.759966777 L19.1458611,0.759966777 Z" id="Fill-1" fill="#FFFFFF" mask="url(#mask-2)"></path>
                    </g>
                    <path d="M49,0.5 C49,0.5 47.2645144,22.3211619 47.1902072,23.1854853 C47.1159001,24.0498088 46.4796104,24.1257512 46.2401761,24.1257512 L41.4129613,24.1257512 L41.6953286,20.7569659 C40.8773991,21.9425423 39.8018714,22.862047 38.4665438,23.5171189 C37.1312162,24.1727372 35.6450725,24.5 34.0125162,24.5 C31.4040588,24.5 29.4170296,23.7902932 28.0503279,22.371426 C26.6836261,20.9520124 26,18.8862684 26,16.1725551 C26,15.5491714 26.0159623,15.0661992 26.046786,14.722546 C26.046786,14.722546 27.044704,1.98552176 27.1135069,1.31624476 C27.1828603,0.648060463 27.7696118,0.5 28.0486766,0.5 L33.0696405,0.5 L31.9385201,14.3477509 L31.8911837,15.23666 C31.8911837,18.3246221 33.3211841,19.8680568 36.1806347,19.8680568 C37.8770402,19.8680568 39.2354856,19.3151521 40.2576222,18.2077035 C41.2786579,17.1008013 41.8676112,15.5803132 42.0244819,13.645693 C42.0244819,13.645693 43.0124922,1.97896558 43.0482698,1.23975596 C43.082396,0.5 43.8518882,0.5 43.8518882,0.5 L49,0.5 Z" id="Fill-4" fill="#FFFFFF"></path>
                    <path d="M51.9091845,1.49518862 C51.9775454,0.645132144 52.5315425,0.557307432 52.8569406,0.557307432 L57.4327489,0.557307432 L57.0707093,4.13155636 C57.7576001,2.83153377 58.779733,1.81829681 60.1387486,1.09076124 C61.4972173,0.364309916 62.9874859,0 64.6111951,0 C65.5474666,0 66.3437349,0.124147278 67,0.371899706 L66.5313174,5.61644454 C65.6568441,5.24562909 64.640727,5.06022137 63.4873412,5.06022137 C61.4572945,5.06022137 59.8817114,5.62457646 58.7573106,6.75437091 C57.6340035,7.88416535 57.0083642,9.409171 56.8842207,11.3266772 C56.8842207,11.3266772 56.0004504,22.4213237 55.9315425,23.0355546 C55.8631816,23.6508697 55.4453595,24 54.9821457,24 L50,24 L51.3579218,7.19512085" id="Fill-6" fill="#FFFFFF"></path>
                    <g id="Group-10" transform="translate(66.000000, 0.000000)">
                        <mask id="mask-4" fill="white">
                            <use xlink:href="#path-3"></use>
                        </mask>
                        <g id="Clip-9"></g>
                        <path d="M12.1161669,4.29021717 C13.6696891,4.29021717 14.8971567,4.87233746 15.799114,5.80095793 C16.6999827,6.72904532 17.1343593,8.22326068 17.1033324,9.82249226 L6.01039999,9.82249226 C6.75613419,6.09095192 8.79084549,4.29021717 12.1161669,4.29021717 Z M21.8580684,12.4878782 C21.9516934,11.4217238 21.9974173,10.9105028 21.9974173,10.2100394 C21.9974173,6.98438929 21.0889279,4.46026879 19.2714049,2.67979097 C17.4538819,0.900912386 14.9755404,1.19332147e-05 11.8369248,1.19332147e-05 C9.56815092,1.19332147e-05 7.5416046,0.536287587 5.75401983,1.6157689 C3.96697939,2.69578329 2.569136,4.19852789 1.55940099,6.13199886 C0.549121656,8.06440368 0.0439819883,10.262814 0.0439819883,12.7272299 C0.0439819883,14.979481 0.5257154,16.9550651 1.48972656,18.6582467 C2.45210472,20.3635606 3.83525116,21.678129 5.63807721,22.6067495 C7.43927027,23.535903 9.53712403,23.9991471 11.9300055,23.9991471 C13.6386622,23.9991471 15.301595,23.7406046 16.9177154,23.2245859 C18.532747,22.706968 19.8391427,21.9915784 20.8325478,21.077351 L19.5272408,17.1992144 C17.3831188,18.8117729 14.9602991,19.6177856 12.2566044,19.6177856 C10.1119381,19.6177856 8.43049801,19.0244707 7.31189669,17.8373078 C6.19220672,16.650678 5.58309973,14.9315041 5.58309973,12.6792529 L5.58309973,12.4878782 L21.8580684,12.4878782 Z" id="Fill-8" fill="#FFFFFF" mask="url(#mask-4)"></path>
                    </g>
                    <g id="Group-13" transform="translate(88.000000, 0.000000)">
                        <mask id="mask-6" fill="white">
                            <use xlink:href="#path-5"></use>
                        </mask>
                        <g id="Clip-12"></g>
                        <path d="M1.93969529,1.51398854 C2.00832741,0.66682059 2.56010787,0.579294309 2.884204,0.579294309 L7.4417036,0.579294309 L7.08165732,4.14139782 C7.76525502,2.84579275 8.78329814,1.83599881 10.1368761,1.11093542 C11.4899093,0.386952606 12.9742151,0.0238806272 14.5914275,0.0238806272 C15.5234081,0.0238806272 16.3170351,0.147606049 16.9701296,0.394516606 L16.503867,5.6212403 C15.6328927,5.25168489 14.6208413,5.06690719 13.4720703,5.06690719 C11.4501462,5.06690719 9.88032267,5.62934459 8.76096547,6.75529995 C7.64160827,7.88125531 7.01901689,9.40107894 6.89537013,11.3120694 C6.89537013,11.3120694 6.01513596,22.3690159 5.94704854,22.9811596 C5.87841642,23.5943838 5.4622661,23.9423278 5.00036104,23.9423278 L0.0386945016,23.9423278 L1.39172773,7.19455221 L1.93969529,1.51398854 Z" id="Fill-11" fill="#FFFFFF" mask="url(#mask-6)"></path>
                    </g>
                </g>
            </g>
        </g>
    </g>
</svg>