<svg width="123" height="27" xmlns="http://www.w3.org/2000/svg"><path d="M17.248 18.823c-1.176 1.583-2.777 2.373-4.801 2.373-2.027 0-3.587-.65-4.68-1.952-1.095-1.302-1.642-3.156-1.642-5.562 0-2.769.588-4.943 1.764-6.526 1.176-1.582 2.809-2.373 4.9-2.373 1.992 0 3.528.652 4.607 1.954 1.077 1.302 1.616 3.187 1.616 5.66 0 2.702-.588 4.845-1.764 6.426zm3.487-18c-.294 0-.814.05-.856.716-.043.665-.23 2.847-.23 2.847-.752-1.384-1.805-2.478-3.16-3.237C15.132.393 13.54.001 11.711.001 9.391 0 7.35.58 5.586 1.75 3.823 2.92 2.45 4.558 1.47 6.666.49 8.776 0 11.196 0 13.93c0 2.44.441 4.572 1.324 6.401.881 1.829 2.114 3.23 3.7 4.202 1.584.972 3.42 1.459 5.512 1.459 1.6 0 3.078-.339 4.435-1.014 1.355-.676 2.457-1.597 3.308-2.816l-.295 3.486h5.125c.216 0 .9-.03.985-.984C24.178 23.712 25.97.823 25.97.823h-5.235zM55.232.541s-1.88 23.632-1.96 24.568c-.08.937-.77 1.019-1.029 1.019h-5.227l.305-3.649c-.885 1.284-2.05 2.28-3.496 2.99-1.447.71-3.056 1.064-4.824 1.064-2.825 0-4.977-.769-6.457-2.305-1.48-1.537-2.22-3.774-2.22-6.713 0-.676.017-1.199.05-1.57 0 0 1.08-13.795 1.155-14.52.076-.723.711-.884 1.013-.884h5.438l-1.225 14.997-.051.963c0 3.344 1.548 5.016 4.645 5.016 1.837 0 3.308-.599 4.415-1.798 1.106-1.2 1.744-2.846 1.914-4.94 0 0 1.07-12.636 1.109-13.436.036-.802.87-.802.87-.802h5.575zm5.317 1.079c.074-.921.674-1.016 1.026-1.016h4.956l-.392 3.87c.743-1.407 1.85-2.505 3.322-3.293C70.932.395 72.546 0 74.305 0c1.014 0 1.876.134 2.587.403l-.508 5.68c-.947-.402-2.047-.603-3.296-.603-2.199 0-3.905.611-5.123 1.835-1.216 1.223-1.894 2.875-2.028 4.952 0 0-.958 12.015-1.032 12.68-.074.666-.527 1.045-1.028 1.045H58.48l1.47-18.2m31.146-3.146c1.683 0 3.012.63 3.989 1.636.976 1.005 1.446 2.624 1.412 4.356H84.484c.808-4.042 3.011-5.992 6.612-5.992zm10.55 8.878c.102-1.154.152-1.708.152-2.467 0-3.493-.984-6.227-2.953-8.155C96.877.976 94.193 0 90.794 0c-2.457 0-4.652.58-6.588 1.75-1.935 1.17-3.449 2.797-4.542 4.89-1.095 2.094-1.642 4.474-1.642 7.143 0 2.44.522 4.579 1.566 6.424 1.042 1.846 2.54 3.27 4.493 4.276 1.95 1.006 4.222 1.508 6.814 1.508 1.85 0 3.651-.28 5.401-.84 1.75-.56 3.164-1.334 4.24-2.325l-1.414-4.2c-2.322 1.747-4.945 2.62-7.874 2.62-2.322 0-4.143-.643-5.355-1.929-1.212-1.285-1.872-3.146-1.872-5.586v-.207h17.626zm4.421-11.884c.074-.918.672-1.013 1.023-1.013h4.936l-.39 3.858c.74-1.403 1.843-2.497 3.308-3.282C116.41.42 118.017.026 119.77.026c1.009 0 1.868.134 2.576.401l-.505 5.66c-.943-.4-2.04-.6-3.284-.6-2.19 0-3.89.61-5.102 1.829-1.212 1.22-1.886 2.865-2.02 4.935 0 0-.953 11.974-1.027 12.637-.074.664-.525 1.041-1.025 1.041h-5.374l1.466-18.137.593-6.152z" fill="#FFF" fill-rule="evenodd"/></svg>