<svg width="60" height="60" fill="none" xmlns="http://www.w3.org/2000/svg"><path d="M59.108 19.002l-28-18.666a1.998 1.998 0 0 0-2.218 0l-28 18.666A2 2 0 0 0 0 20.666v18.666a2 2 0 0 0 .89 1.664l28 18.666a1.997 1.997 0 0 0 2.22 0l28-18.666a2 2 0 0 0 .89-1.664V20.666a2 2 0 0 0-.89-1.664h-.002zM29.998 36.93L19.604 30l10.394-6.93L40.392 30l-10.394 6.93zm2-17.334V5.736l22.394 14.93-10.394 6.93-12-8zm-4 0l-12 8-10.394-6.93 22.394-14.93v13.86zM12.392 30l-8.394 5.596V24.404L12.392 30zm3.606 2.404l12 8v13.86L5.604 39.334l10.394-6.93zm16 8l12-8 10.394 6.93-22.394 14.93v-13.86zM47.604 30l8.394-5.596v11.192L47.604 30z" fill="#fff"/></svg>