<svg width="60" height="59" fill="none" xmlns="http://www.w3.org/2000/svg"><path d="M30 0C13.432 0 0 13.43 0 30c0 13.254 8.597 24.5 20.516 28.466 1.5.278 2.052-.65 2.052-1.444 0-.714-.029-3.078-.042-5.585-8.347 1.815-10.108-3.54-10.108-3.54-1.365-3.467-3.33-4.39-3.33-4.39-2.722-1.861.206-1.824.206-1.824 3.012.212 4.598 3.092 4.598 3.092 2.675 4.586 7.018 3.26 8.73 2.494.268-1.939 1.046-3.263 1.905-4.013-6.664-.757-13.669-3.332-13.669-14.825 0-3.276 1.172-5.952 3.092-8.053-.311-.756-1.339-3.807.29-7.94 0 0 2.52-.806 8.252 3.076 2.393-.666 4.96-.998 7.51-1.01 2.548.01 5.117.344 7.515 1.01 5.726-3.881 8.24-3.075 8.24-3.075 1.634 4.132.606 7.183.295 7.939 1.924 2.1 3.088 4.777 3.088 8.053 0 11.521-7.018 14.058-13.699 14.803 1.076.932 2.035 2.756 2.035 5.555 0 4.015-.036 7.245-.036 8.233 0 .8.54 1.735 2.06 1.44C51.415 54.492 60 43.252 60 30 60 13.43 46.568 0 30 0z" fill="#fff"/></svg>