<svg width="60" height="61" fill="none" xmlns="http://www.w3.org/2000/svg"><path d="M30.017 5.407c8.02 0 8.97.035 12.123.176 2.932.13 4.514.621 5.57 1.032 1.396.54 2.403 1.197 3.446 2.24 1.056 1.056 1.7 2.052 2.252 3.448.41 1.056.902 2.65 1.031 5.57.141 3.167.177 4.116.177 12.125s-.036 8.97-.177 12.125c-.13 2.932-.62 4.514-1.032 5.57-.54 1.396-1.194 2.403-2.24 3.446-1.056 1.057-2.052 1.7-3.446 2.252-1.056.41-2.65.902-5.57 1.032-3.167.14-4.116.176-12.125.176s-8.97-.036-12.125-.176c-2.932-.13-4.514-.622-5.57-1.032-1.396-.54-2.403-1.195-3.448-2.24-1.056-1.057-1.7-2.053-2.251-3.447-.411-1.056-.903-2.65-1.032-5.57-.14-3.166-.176-4.116-.176-12.125s.035-8.969.176-12.125c.13-2.932.621-4.513 1.032-5.57.54-1.395 1.197-2.403 2.24-3.448 1.056-1.056 2.052-1.7 3.448-2.251 1.056-.41 2.649-.902 5.57-1.032 3.154-.14 4.105-.176 12.125-.176h.002zm0-5.405c-8.15 0-9.168.036-12.37.176-3.19.14-5.383.657-7.282 1.396-1.98.773-3.658 1.794-5.322 3.47-1.677 1.667-2.698 3.342-3.47 5.312-.74 1.912-1.256 4.091-1.397 7.28C.036 20.852 0 21.87 0 30.02s.036 9.168.176 12.37c.141 3.19.657 5.383 1.396 7.281.775 1.982 1.794 3.659 3.47 5.323 1.665 1.664 3.342 2.698 5.312 3.46 1.912.738 4.092 1.254 7.28 1.395 3.201.14 4.222.176 12.372.176 8.15 0 9.17-.035 12.37-.176 3.19-.14 5.383-.657 7.281-1.396 1.97-.761 3.647-1.793 5.311-3.46 1.664-1.665 2.698-3.34 3.46-5.31.739-1.912 1.255-4.092 1.396-7.281.14-3.2.176-4.221.176-12.371s-.036-9.168-.176-12.37c-.141-3.19-.657-5.383-1.396-7.282-.74-1.994-1.76-3.67-3.435-5.335-1.664-1.664-3.341-2.698-5.311-3.46C47.77.844 45.59.328 42.4.188 39.189.036 38.168 0 30.019 0l-.002.002z" fill="#fff"/><path d="M30.017 14.6c-8.512 0-15.42 6.905-15.42 15.419 0 8.513 6.906 15.419 15.42 15.419 8.513 0 15.42-6.906 15.42-15.42 0-8.51-6.907-15.419-15.42-15.419zm0 25.42c-5.523 0-10.001-4.478-10.001-10.001s4.478-10.002 10-10.002c5.524 0 10.002 4.479 10.002 10.002 0 5.523-4.478 10.001-10.001 10.001zm19.627-26.03a3.6 3.6 0 1 1-7.2 0 3.6 3.6 0 0 1 7.2 0z" fill="#fff"/></svg>