<svg width="60" height="49" fill="none" xmlns="http://www.w3.org/2000/svg"><path d="M60 5.765a24.26 24.26 0 0 1-7.066 1.932A12.375 12.375 0 0 0 58.347.89a24.765 24.765 0 0 1-7.817 2.99A12.308 12.308 0 0 0 41.544 0C34.75 0 29.241 5.508 29.241 12.303c0 .96.105 1.897.317 2.801C19.329 14.589 10.26 9.69 4.192 2.24a12.296 12.296 0 0 0-1.663 6.187 12.29 12.29 0 0 0 5.472 10.24 12.308 12.308 0 0 1-5.577-1.535v.152c0 5.963 4.242 10.945 9.877 12.067a12.284 12.284 0 0 1-5.564.21c1.571 4.886 6.117 8.447 11.494 8.554a24.69 24.69 0 0 1-15.29 5.274c-.995 0-1.968-.058-2.941-.177a34.808 34.808 0 0 0 18.876 5.53c22.636 0 35.02-18.757 35.02-35.02 0-.538-.011-1.066-.035-1.593A24.775 24.775 0 0 0 60 5.766v-.001z" fill="#fff"/></svg>